<?xml version="1.0" standalone="no"?>
<!DOCTYPE svg PUBLIC "-//W3C//DTD SVG 20010904//EN"
 "http://www.w3.org/TR/2001/REC-SVG-20010904/DTD/svg10.dtd">
<svg version="1.0" xmlns="http://www.w3.org/2000/svg"
 width="800.000000pt" height="800.000000pt" viewBox="0 0 800.000000 800.000000"
 preserveAspectRatio="xMidYMid meet">
<metadata>
Created by potrace 1.11, written by Peter Selinger 2001-2013
</metadata>
<g transform="translate(0.000000,800.000000) scale(0.100000,-0.100000)"
fill="#000000" stroke="none">
<path d="M3834 7870 c-5 -5 -85 -12 -178 -15 -180 -5 -376 -25 -534 -53 -69
-12 -105 -15 -124 -8 -23 8 -32 6 -50 -11 -13 -11 -69 -32 -133 -48 -153 -39
-368 -113 -521 -180 -71 -31 -142 -56 -157 -56 -19 1 -37 -8 -55 -27 -15 -15
-67 -50 -117 -76 -125 -67 -281 -168 -416 -267 -62 -46 -118 -84 -124 -84 -26
-1 -55 -18 -60 -36 -4 -11 -102 -115 -219 -232 -117 -117 -227 -231 -244 -253
l-32 -41 52 -32 51 -32 40 48 c52 63 385 395 418 416 25 17 28 15 212 -83 103
-54 192 -102 197 -105 6 -4 -13 -27 -42 -53 -164 -145 -454 -455 -442 -473 3
-5 26 -21 51 -36 l45 -26 37 44 c89 108 236 261 346 361 l120 109 118 -123
119 -123 -64 -55 c-110 -95 -208 -192 -299 -294 -49 -55 -89 -102 -89 -105 0
-3 22 -20 49 -38 l48 -31 69 80 c72 83 206 215 310 305 l61 52 524 -541 c288
-298 600 -619 692 -714 l168 -172 -81 -43 c-44 -24 -80 -45 -80 -48 0 -8 85
-61 96 -61 5 0 39 16 76 35 l66 35 141 -147 c78 -81 141 -149 141 -152 0 -4
-22 -16 -48 -28 -27 -12 -69 -41 -95 -63 l-46 -41 -246 96 c-136 52 -254 99
-263 104 -12 7 2 18 66 50 45 23 82 45 82 49 0 4 -22 20 -48 36 l-47 28 -81
-40 -82 -41 -179 48 c-143 38 -313 100 -868 315 -379 148 -694 272 -698 276
-15 14 103 220 226 394 l70 99 -23 17 c-13 10 -36 25 -51 34 l-27 16 -77 -110
c-76 -108 -219 -345 -231 -382 -3 -10 -10 -18 -15 -18 -22 0 -309 116 -309
125 0 32 226 404 338 555 11 15 7 21 -38 50 -28 18 -52 31 -54 29 -98 -131
-224 -330 -306 -484 -29 -55 -55 -102 -56 -104 -3 -4 -375 196 -389 210 -20
20 197 389 344 585 l31 42 -49 35 -48 35 -61 -81 c-107 -146 -332 -521 -332
-555 0 -6 -9 -13 -19 -17 -20 -6 -47 -58 -37 -73 3 -5 -16 -63 -43 -128 -83
-204 -201 -595 -201 -666 0 -9 -10 -26 -21 -37 -18 -17 -21 -27 -16 -64 4 -25
0 -94 -8 -153 -8 -60 -20 -197 -26 -304 -6 -107 -15 -203 -20 -212 -12 -24
-11 -62 3 -76 6 -6 13 -48 15 -94 6 -138 33 -355 61 -498 15 -78 25 -161 24
-197 -2 -53 0 -64 17 -73 11 -6 25 -29 32 -53 33 -125 119 -362 187 -519 l21
-48 29 17 c29 17 31 16 71 -10 23 -15 41 -25 41 -22 0 3 -11 27 -24 53 -31 62
-150 362 -170 430 l-15 53 82 -45 c45 -24 122 -67 171 -94 l88 -50 68 -203
c38 -112 92 -259 122 -326 l54 -122 94 -75 c52 -41 99 -71 103 -66 5 4 -9 41
-31 81 -67 121 -158 337 -217 511 -30 89 -55 170 -55 178 0 10 48 32 155 69
86 29 157 52 159 50 2 -2 20 -58 41 -124 46 -149 97 -277 168 -426 76 -156 66
-148 121 -109 25 19 46 34 46 35 0 1 -24 53 -54 116 -30 63 -72 159 -94 214
-42 106 -117 334 -111 339 2 1 360 126 794 276 435 150 865 299 958 331 l167
58 35 -69 c19 -39 38 -70 42 -70 12 0 93 55 93 64 0 4 -12 30 -27 57 -18 31
-24 52 -18 57 6 5 71 30 145 54 l136 45 -4 -101 c-2 -56 -8 -106 -13 -112 -5
-6 -20 -62 -34 -125 -14 -63 -28 -125 -31 -139 -5 -22 -12 -13 -50 63 -30 60
-49 85 -57 80 -7 -4 -28 -19 -49 -33 l-36 -26 74 -144 73 -144 -236 -1080
c-129 -595 -237 -1083 -239 -1085 -6 -6 -257 130 -365 199 -385 244 -734 592
-974 971 l-62 97 -46 -30 c-26 -17 -47 -35 -47 -41 0 -16 159 -251 235 -347
222 -283 476 -517 775 -715 670 -445 1480 -624 2288 -505 534 78 1049 294
1484 623 560 422 979 1033 1173 1707 86 299 119 543 119 890 1 270 -7 372 -45
590 -153 878 -676 1666 -1434 2163 -446 292 -973 471 -1515 517 -74 6 -136 13
-138 15 -2 2 -10 61 -18 132 -7 70 -15 146 -18 167 l-4 39 116 -7 c755 -45
1455 -315 2052 -790 161 -128 428 -396 557 -558 423 -529 680 -1139 769 -1820
21 -169 29 -539 15 -713 -96 -1150 -708 -2163 -1677 -2777 -454 -288 -967
-467 -1524 -534 -176 -21 -591 -24 -755 -6 -607 69 -1148 263 -1629 582 -220
146 -351 254 -561 465 -211 210 -319 341 -465 561 l-88 132 -28 -19 c-20 -14
-40 -18 -61 -15 l-32 5 51 -82 c104 -168 279 -400 404 -537 62 -68 57 -67 -41
13 -250 203 -511 495 -710 795 -61 92 -82 114 -183 193 -63 50 -116 89 -118
87 -2 -3 28 -60 67 -129 360 -638 896 -1152 1559 -1497 63 -32 159 -87 212
-121 470 -297 1048 -495 1608 -551 993 -99 1988 206 2760 847 58 48 173 155
255 237 631 634 1001 1440 1076 2345 14 173 6 566 -15 726 -87 658 -313 1235
-684 1744 -342 469 -787 854 -1299 1122 -65 34 -176 98 -248 143 -476 294
-1012 479 -1565 541 -74 8 -160 15 -191 15 -38 0 -61 5 -69 15 -14 17 -61 20
-76 5z m165 -215 l113 -83 -43 -6 c-24 -2 -102 -10 -174 -16 -71 -6 -193 -21
-270 -35 l-140 -23 -153 96 c-121 76 -149 98 -134 103 20 8 281 37 372 42 30
2 114 4 185 5 l130 1 114 -84z m321 38 c106 -16 293 -55 379 -79 85 -23 392
-126 388 -130 -2 -2 -59 7 -128 21 -149 29 -348 52 -524 61 l-130 7 -100 74
-100 75 60 -7 c33 -4 103 -13 155 -22z m-1156 -138 c123 -77 154 -101 139
-107 -10 -3 -67 -21 -127 -39 -124 -36 -291 -98 -431 -160 l-95 -41 -180 103
c-99 57 -180 106 -180 109 0 7 260 110 365 144 89 29 337 95 346 93 3 -1 76
-47 163 -102z m1089 -262 c10 -87 17 -163 17 -169 0 -7 -51 -13 -147 -17 -129
-6 -259 -19 -424 -43 l-47 -6 -51 153 c-28 85 -51 157 -51 160 0 12 26 17 167
39 167 25 296 37 424 39 l96 1 16 -157z m-1918 -43 c99 -56 181 -104 183 -105
2 -2 -39 -27 -90 -55 -121 -69 -269 -165 -384 -250 l-91 -68 -189 100 c-104
55 -193 104 -197 108 -10 9 137 116 287 211 107 66 288 167 296 164 3 -2 86
-49 185 -105z m1151 -62 l52 -156 -87 -22 c-125 -31 -318 -95 -437 -145 l-103
-43 -86 138 c-47 76 -85 142 -85 148 0 29 612 246 674 239 16 -2 30 -33 72
-159z m-771 -278 c48 -78 86 -142 84 -144 -2 -1 -49 -26 -104 -55 -101 -54
-298 -178 -368 -234 l-39 -30 -27 29 c-15 16 -69 72 -119 125 l-93 96 113 79
c187 132 423 274 454 274 7 0 51 -63 99 -140z m1631 -497 l60 -578 -95 -217
c-53 -119 -98 -214 -101 -211 -3 2 -120 348 -260 768 -238 712 -254 764 -235
769 24 6 232 34 290 39 22 2 94 4 160 5 l121 2 60 -577z m332 551 c138 -18
214 -33 210 -44 -2 -4 -88 -200 -193 -436 -167 -376 -190 -424 -197 -398 -4
16 -26 209 -48 429 -22 220 -43 417 -46 439 l-6 38 83 -7 c46 -4 135 -13 197
-21z m-817 -889 l280 -839 -37 -83 c-35 -79 -67 -115 -84 -96 -31 34 -1039
1658 -1033 1664 13 12 199 84 307 118 103 33 279 81 283 77 2 -1 129 -380 284
-841z m1352 768 c114 -36 138 -47 134 -61 -5 -19 -721 -1634 -736 -1660 -7
-13 -10 -10 -15 18 -9 53 -66 614 -66 648 0 17 98 250 231 548 127 286 235
529 240 542 11 29 17 28 212 -35z m431 -172 c998 -490 1656 -1450 1757 -2565
16 -180 6 -531 -21 -711 -11 -77 -24 -150 -28 -162 -7 -21 -44 -8 -1061 346
l-1054 367 -12 34 c-17 49 -72 157 -105 205 -31 46 -423 805 -423 820 -1 19
768 1745 777 1745 5 0 81 -36 170 -79z m-2565 -341 c112 -179 347 -553 522
-833 l318 -507 -71 -36 -71 -36 -64 64 c-199 196 -1328 1370 -1328 1380 0 27
440 301 475 295 8 -1 107 -148 219 -327z m-2417 -841 c103 -55 190 -104 193
-108 2 -4 -16 -57 -41 -117 -64 -154 -119 -321 -162 -488 l-37 -143 -195 89
c-107 50 -197 92 -199 94 -7 7 60 274 101 404 22 69 58 170 80 225 22 55 44
110 49 123 5 12 12 22 16 22 3 0 91 -45 195 -101z m3823 -394 c25 -247 48
-469 51 -492 6 -41 5 -43 -19 -43 -24 0 -30 13 -137 334 l-111 333 78 177 c55
124 80 171 85 159 4 -10 27 -220 53 -468z m-3338 169 l143 -56 -16 -36 c-79
-182 -119 -297 -169 -478 -19 -70 -37 -129 -39 -131 -2 -3 -76 5 -163 16 -87
12 -161 21 -165 21 -16 0 72 316 137 490 72 192 96 242 114 235 9 -3 80 -31
158 -61z m480 -186 c116 -45 210 -84 208 -86 -3 -3 -446 108 -454 115 -6 5 17
53 26 53 5 0 103 -37 220 -82z m2657 -263 c42 -127 76 -236 76 -243 0 -41 -45
14 -151 182 -66 104 -119 193 -119 198 0 4 17 16 39 27 23 12 43 32 51 51 7
17 16 27 20 23 4 -4 42 -112 84 -238z m-2178 -21 l759 -196 425 -165 c234 -91
430 -168 437 -172 8 -4 8 -11 -2 -25 -13 -17 -42 -14 -807 83 l-793 102 -450
116 c-247 63 -452 117 -454 119 -4 4 71 245 95 302 7 17 17 32 22 32 5 0 351
-88 768 -196z m1964 -44 c46 -74 94 -152 107 -172 l23 -38 -25 -6 c-22 -6 -42
11 -174 147 l-149 154 62 32 c33 17 64 28 67 25 3 -4 43 -68 89 -142z m685
-111 c52 -104 95 -190 95 -192 0 -2 -28 11 -63 28 -34 17 -76 36 -94 42 -35
13 -35 14 -53 193 -6 58 -13 123 -16 145 l-5 40 21 -33 c11 -19 63 -119 115
-223z m-4364 -35 c101 -47 187 -89 191 -93 5 -4 -1 -70 -12 -147 -11 -77 -24
-218 -29 -313 -6 -96 -12 -175 -13 -176 -2 -1 -87 48 -190 108 l-188 110 0 66
c0 127 33 502 47 524 6 10 -7 15 194 -79z m479 -139 c63 -8 129 -18 146 -20
l30 -5 -18 -118 c-9 -64 -22 -193 -29 -287 -6 -93 -12 -171 -13 -172 -6 -6
-330 -33 -334 -28 -14 14 29 524 53 623 6 27 13 27 165 7z m3626 -26 c320 -44
574 -280 639 -595 20 -99 19 -213 -5 -310 -37 -158 -102 -267 -224 -381 -213
-199 -521 -254 -791 -140 -197 82 -352 254 -423 465 -23 68 -26 93 -26 222 -1
137 1 150 31 233 44 125 86 190 188 292 96 97 174 145 295 184 116 38 204 46
316 30z m-2856 -74 l425 -54 438 -113 c358 -92 438 -116 443 -131 3 -10 4 -20
2 -21 -1 -2 -401 -40 -888 -85 -487 -45 -900 -84 -919 -87 l-34 -5 7 123 c4
68 14 175 22 238 25 198 23 190 53 190 15 0 218 -25 451 -55z m1670 -215 c135
-17 256 -33 270 -37 15 -4 -71 -16 -205 -29 -321 -32 -289 -35 -325 36 -16 33
-30 62 -30 65 0 3 10 3 23 0 12 -2 132 -18 267 -35z m265 -179 c-10 -8 -359
-131 -374 -131 -10 0 -53 91 -46 98 6 7 307 38 385 41 26 0 40 -3 35 -8z
m-3236 -128 c91 -53 174 -103 184 -111 13 -11 17 -30 17 -78 0 -94 28 -341 54
-484 13 -69 23 -126 22 -127 -1 -1 -80 42 -176 96 l-175 98 -17 69 c-52 204
-107 634 -81 634 4 0 81 -44 172 -97z m2713 22 c18 -35 30 -66 27 -68 -2 -3
-427 -151 -944 -330 -648 -224 -942 -321 -947 -313 -22 38 -89 578 -74 594 5
4 1803 178 1879 181 24 1 31 -7 59 -64z m3253 -418 l1010 -353 -3 -28 c-4 -32
-65 -241 -85 -286 l-12 -29 -730 255 c-401 139 -847 295 -991 345 l-261 91 15
61 c8 35 15 113 16 179 1 98 4 118 16 117 8 0 470 -159 1025 -352z m-5307 223
c4 -103 31 -336 53 -448 11 -57 19 -108 17 -114 -4 -10 -309 -121 -315 -115
-9 10 -65 327 -77 442 -22 204 -24 266 -11 271 18 7 267 32 300 31 30 -2 30
-2 33 -67z m2625 -344 c39 -84 104 -174 182 -251 l72 -70 -238 -1088 c-131
-598 -239 -1092 -241 -1097 -3 -9 -216 58 -302 95 -34 14 -38 19 -33 43 3 15
121 554 262 1197 141 644 259 1182 262 1198 3 15 7 27 9 27 1 0 14 -24 27 -54z
m2683 -386 c463 -161 847 -296 853 -300 15 -9 -52 -163 -135 -312 -385 -693
-1012 -1219 -1754 -1470 -443 -150 -930 -200 -1388 -143 -126 16 -318 50 -350
63 -17 6 1 94 215 1072 128 586 235 1070 237 1077 4 9 23 4 68 -17 111 -52
207 -72 353 -72 100 0 149 5 210 21 229 60 428 211 544 414 l32 56 137 -48
c75 -27 516 -180 978 -341z"/>
</g>
</svg>
